<?xml version="1.0" encoding="UTF-8"?>
<svg width="1232px" height="416px" viewBox="0 0 1232 416" version="1.1" xmlns="http://www.w3.org/2000/svg" xmlns:xlink="http://www.w3.org/1999/xlink">
    <title>Logo</title>
    <g id="Page-1" stroke="none" stroke-width="1" fill="none" fill-rule="evenodd">
        <g id="Logo" transform="translate(-32.000000, -48.000000)" fill="#FF6700" fill-rule="nonzero">
            <g transform="translate(32.000000, 48.000000)">
                <polygon id="Line-Copy-2" points="88.527616 0 88.527616 66.388382 142.782543 66.388382 166.07267 137.211275 0 392.974156 83.0363351 392.974156 200.025658 218.369664 277.489401 416 1232 416 1210.2981 333.694659 325.226493 333.694659 190.887383 3.60822483e-16"></polygon>
                <g id="text" transform="translate(258.000000, 0.000000)">
                    <path d="M256.347656,0.1015625 L280.761719,24.515625 L280.761719,171 L146.484375,171 L146.484375,24.515625 L170.898438,0.1015625 L256.347656,0.1015625 Z M390.625,0.1015625 L402.832031,12.3085938 L415.039062,0.1015625 L488.28125,0.1015625 L512.695312,24.515625 L512.695312,171 L463.867188,171 L463.867188,48.9296875 L427.246094,48.9296875 L427.246094,171 L378.417969,171 L378.417969,48.9296875 L341.796875,48.9296875 L341.796875,171 L292.96875,171 L292.96875,24.515625 L317.382812,0.1015625 L390.625,0.1015625 Z M634.765625,0.1015625 L659.179688,24.515625 L659.179688,73.34375 L646.972656,85.5507812 L659.179688,97.7578125 L659.179688,146.585938 L634.765625,171 L524.902344,171 L524.902344,0.1015625 L634.765625,0.1015625 Z M781.25,0.1015625 L805.664062,24.515625 L805.664062,146.585938 L781.25,171 L671.386719,171 L671.386719,0.1015625 L781.25,0.1015625 Z M927.734375,0.1015625 L952.148438,24.515625 L952.148438,171 L903.320312,171 L903.320312,134.378906 L866.699219,134.378906 L866.699219,171 L817.871094,171 L817.871094,24.515625 L842.285156,0.1015625 L927.734375,0.1015625 Z M48.828125,0.1015625 L48.828125,122.171875 L85.4492188,122.171875 L85.4492188,85.5507812 L134.277344,97.7578125 L134.277344,171 L21.341,171 L0,116.389562 L0,0.1015625 L48.828125,0.1015625 Z" id="Shape"></path>
                    <path d="M169.189453,198.207031 L185.302734,214.320312 L185.302734,294.886719 L169.189453,311 L112.792969,311 L96.6796875,294.886719 L96.6796875,214.320312 L112.792969,198.207031 L169.189453,198.207031 Z M225.585938,198.207031 L249.755859,254.603516 L249.755859,198.207031 L281.982422,198.207031 L281.982422,311 L249.755859,311 L225.585938,254.603516 L225.585938,311 L193.359375,311 L193.359375,198.207031 L225.585938,198.207031 Z M370.605469,198.207031 L370.605469,230.433594 L346.435547,230.433594 L346.435547,311 L314.208984,311 L314.208984,230.433594 L290.039062,230.433594 L290.039062,198.207031 L370.605469,198.207031 Z M451.171875,198.207031 L467.285156,214.320312 L467.285156,262.660156 L459.228516,270.716797 L467.285156,278.773438 L467.285156,311 L435.058594,311 L435.058594,286.830078 L410.888672,286.830078 L410.888672,311 L378.662109,311 L378.662109,198.207031 L451.171875,198.207031 Z M547.851562,198.207031 L563.964844,214.320312 L563.964844,294.886719 L547.851562,311 L491.455078,311 L475.341797,294.886719 L475.341797,214.320312 L491.455078,198.207031 L547.851562,198.207031 Z M604.248047,198.207031 L604.248047,278.773438 L628.417969,278.773438 L628.417969,254.603516 L660.644531,262.660156 L660.644531,311 L572.021484,311 L572.021484,198.207031 L604.248047,198.207031 Z M700.927734,198.207031 L700.927734,278.773438 L725.097656,278.773438 L725.097656,254.603516 L757.324219,262.660156 L757.324219,311 L668.701172,311 L668.701172,198.207031 L700.927734,198.207031 Z M854.003906,198.207031 L854.003906,230.433594 L797.607422,230.433594 L797.607422,238.490234 L845.947266,238.490234 L837.890625,270.716797 L797.607422,270.716797 L797.607422,278.773438 L854.003906,278.773438 L854.003906,311 L765.380859,311 L765.380859,198.207031 L854.003906,198.207031 Z M934.570312,198.207031 L950.683594,214.320312 L950.683594,262.660156 L942.626953,270.716797 L950.683594,278.773438 L950.683594,311 L918.457031,311 L918.457031,286.830078 L894.287109,286.830078 L894.287109,311 L862.060547,311 L862.060547,198.207031 L934.570312,198.207031 Z M57.243,262.872 L88.6230469,270.716797 L88.6230469,294.886719 L75.055,308.454 L57.243,262.872 Z M72.5097656,198.207 L88.6230469,214.320312 L88.6230469,238.490234 L56.3964844,246.546875 L56.3964844,230.433594 L44.566,230.433 L31.973,198.207 L72.5097656,198.207 Z" id="Shape"></path>
                </g>
            </g>
        </g>
    </g>
</svg>