<?xml version="1.0" encoding="UTF-8"?>
<svg width="1232px" height="416px" viewBox="0 0 1232 416" version="1.1" xmlns="http://www.w3.org/2000/svg" xmlns:xlink="http://www.w3.org/1999/xlink">
    <title>Logo</title>
    <defs>
        <polygon id="path-1" points="0 0 1205.41016 0 1029 449 0 449"></polygon>
    </defs>
    <g id="Page-1" stroke="none" stroke-width="1" fill="none" fill-rule="evenodd">
        <g id="Logo" transform="translate(-33.000000, -57.000000)">
            <g transform="translate(33.000000, 57.000000)">
                <polygon id="Line-Copy-2" fill="#FF6700" fill-rule="nonzero" points="88.527616 0 88.527616 66.388382 142.782543 66.388382 166.07267 137.211275 0 392.974156 83.0363351 392.974156 200.025658 218.369664 277.489401 416 1232 416 1210.2981 333.694659 325.226493 333.694659 190.887383 3.60822483e-16"></polygon>
                <g id="text" transform="translate(209.000000, 0.000000)">
                    <mask id="mask-2" fill="white">
                        <use xlink:href="#path-1"></use>
                    </mask>
                    <g id="Mask" transform="translate(602.705078, 224.500000) scale(-1, 1) translate(-602.705078, -224.500000) "></g>
                    <path d="M97.828125,0.1015625 L97.828125,122.171875 L134.449219,122.171875 L134.449219,85.5507812 L183.277344,97.7578125 L183.277344,171 L49,171 L49,0.1015625 L97.828125,0.1015625 Z M305.347656,0.1015625 L329.761719,24.515625 L329.761719,171 L195.484375,171 L195.484375,24.515625 L219.898438,0.1015625 L305.347656,0.1015625 Z M390.796875,171 L390.796875,48.9296875 L427.417969,48.9296875 L427.417969,171 L476.246094,171 L476.246094,48.9296875 L512.867188,48.9296875 L512.867188,171 L561.695312,171 L561.695312,24.515625 L537.28125,0.1015625 L464.039062,0.1015625 L451.832031,12.3085938 L439.625,0.1015625 L366.382812,0.1015625 L341.96875,24.515625 L341.96875,171 L390.796875,171 Z M683.765625,171 L708.179688,146.585938 L708.179688,97.7578125 L695.972656,85.5507812 L708.179688,73.34375 L708.179688,24.515625 L683.765625,0.1015625 L573.902344,0.1015625 L573.902344,171 L683.765625,171 Z M830.25,171 L854.664062,146.585938 L854.664062,24.515625 L830.25,0.1015625 L720.386719,0.1015625 L720.386719,171 L830.25,171 Z M915.699219,171 L915.699219,134.378906 L952.320312,134.378906 L952.320312,171 L1001.14844,171 L1001.14844,24.515625 L976.734375,0.1015625 L891.285156,0.1015625 L866.871094,24.515625 L866.871094,171 L915.699219,171 Z" id="Lambda" fill="#FF6700" fill-rule="nonzero" mask="url(#mask-2)"></path>
                    <path d="M121.509766,311 L137.623047,294.886719 L137.623047,270.716797 L105.396484,262.660156 L105.396484,278.773438 L81.2265625,278.773438 L81.2265625,230.433594 L105.396484,230.433594 L105.396484,246.546875 L137.623047,238.490234 L137.623047,214.320312 L121.509766,198.207031 L65.1132812,198.207031 L49,214.320312 L49,294.886719 L65.1132812,311 L121.509766,311 Z M218.189453,311 L234.302734,294.886719 L234.302734,214.320312 L218.189453,198.207031 L161.792969,198.207031 L145.679688,214.320312 L145.679688,294.886719 L161.792969,311 L218.189453,311 Z M274.585938,311 L274.585938,254.603516 L298.755859,311 L330.982422,311 L330.982422,198.207031 L298.755859,198.207031 L298.755859,254.603516 L274.585938,198.207031 L242.359375,198.207031 L242.359375,311 L274.585938,311 Z M395.435547,311 L395.435547,230.433594 L419.605469,230.433594 L419.605469,198.207031 L339.039062,198.207031 L339.039062,230.433594 L363.208984,230.433594 L363.208984,311 L395.435547,311 Z M459.888672,311 L459.888672,286.830078 L484.058594,286.830078 L484.058594,311 L516.285156,311 L516.285156,278.773438 L508.228516,270.716797 L516.285156,262.660156 L516.285156,214.320312 L500.171875,198.207031 L427.662109,198.207031 L427.662109,311 L459.888672,311 Z M596.851562,311 L612.964844,294.886719 L612.964844,214.320312 L596.851562,198.207031 L540.455078,198.207031 L524.341797,214.320312 L524.341797,294.886719 L540.455078,311 L596.851562,311 Z M709.644531,311 L709.644531,262.660156 L677.417969,254.603516 L677.417969,278.773438 L653.248047,278.773438 L653.248047,198.207031 L621.021484,198.207031 L621.021484,311 L709.644531,311 Z M806.324219,311 L806.324219,262.660156 L774.097656,254.603516 L774.097656,278.773438 L749.927734,278.773438 L749.927734,198.207031 L717.701172,198.207031 L717.701172,311 L806.324219,311 Z M903.003906,311 L903.003906,278.773438 L846.607422,278.773438 L846.607422,270.716797 L886.890625,270.716797 L894.947266,238.490234 L846.607422,238.490234 L846.607422,230.433594 L903.003906,230.433594 L903.003906,198.207031 L814.380859,198.207031 L814.380859,311 L903.003906,311 Z M943.287109,311 L943.287109,286.830078 L967.457031,286.830078 L967.457031,311 L999.683594,311 L999.683594,278.773438 L991.626953,270.716797 L999.683594,262.660156 L999.683594,214.320312 L983.570312,198.207031 L911.060547,198.207031 L911.060547,311 L943.287109,311 Z" id="controller" fill="#FF6700" fill-rule="nonzero" mask="url(#mask-2)"></path>
                </g>
            </g>
        </g>
    </g>
</svg>